<svg width="77" height="78" viewBox="0 0 77 78" fill="none" xmlns="http://www.w3.org/2000/svg">
<path fill-rule="evenodd" clip-rule="evenodd" d="M23.9795 77.1383C23.6821 77.6506 23.1698 77.9463 22.5722 77.9463C21.9745 77.9463 21.4652 77.6535 21.1649 77.1383L11.6317 60.7182C11.3343 60.2059 11.3343 59.6175 11.6317 59.1052C17.2373 49.4534 22.8401 39.8016 28.4458 30.1469C28.7431 29.6346 29.2554 29.3389 29.8531 29.3389H69.3903C69.985 29.3389 70.4973 29.6316 70.7976 30.1469C71.0949 30.6592 71.0949 31.2476 70.7976 31.7599L61.2644 48.18C60.967 48.6952 60.4547 48.9879 59.8571 48.9879H41.2617C40.667 48.9879 40.1547 49.2807 39.8544 49.7959C34.5638 58.912 29.2701 68.0251 23.9795 77.1383ZM12.5708 38.1095C12.2735 38.6218 11.7612 38.9175 11.1635 38.9175C10.5688 38.9175 10.0565 38.6248 9.75622 38.1095L0.22302 21.6895C-0.0743402 21.1772 -0.0743402 20.5888 0.22302 20.0764L11.4108 0.807976C11.7082 0.292745 12.2205 0 12.8152 0H75.1697C75.7644 0 76.2767 0.292745 76.577 0.807976C76.8743 1.32028 76.8743 1.9087 76.577 2.421L67.0438 18.8411C66.7464 19.3534 66.2341 19.649 65.6365 19.649H24.2238C23.6291 19.649 23.1168 19.9418 22.8165 20.457C19.4013 26.3412 15.9831 32.2254 12.5679 38.1095H12.5708Z" fill="currentColor"></path>
</svg>